<svg width="16" height="16" viewBox="0 0 16 16" fill="none" xmlns="http://www.w3.org/2000/svg">
<g clip-path="url(#clip0_1_7)">
<rect width="16" height="16" fill="#333333"/>
<path d="M8 9H3V10H1V11H0V13H-1V16H-2V13H-1V11H0V10H1V9H3V8H8V9H10V10H11V11H12V13H13V15H14V16H12V13H11V11H10V10H8V9Z" fill="white"/>
<path d="M8 14V11H9V14H8Z" fill="white"/>
<path d="M7 14V11H6V14H7Z" fill="white"/>
<path d="M7 17V15H8V17H7Z" fill="white"/>
<path d="M3 14H5V15H3V14Z" fill="#4E4E4E"/>
<path d="M9 15V14H11V15H9Z" fill="#4E4E4E"/>
</g>
<defs>
<clipPath id="clip0_1_7">
<rect width="16" height="16" fill="white"/>
</clipPath>
</defs>
</svg>
