<svg width="16" height="16" viewBox="0 0 16 16" fill="none" xmlns="http://www.w3.org/2000/svg">
<rect width="16" height="16" fill="#333333"/>
<path fill-rule="evenodd" clip-rule="evenodd" d="M1 6V9H2V10H5V9H6V6H5V5H2V6H1ZM2 6H5V9H2V6Z" fill="white"/>
<path fill-rule="evenodd" clip-rule="evenodd" d="M10 6V9H11V10H14V9H15V6H14V5H11V6H10ZM11 6H14V9H11V6Z" fill="white"/>
<path d="M6 11V12H7V11H6Z" fill="white"/>
<path d="M7 10V11H9V10H7Z" fill="white"/>
<path d="M10 11H9V12H10V11Z" fill="white"/>
<path d="M2 11V12H4V11H2Z" fill="#4E4E4E"/>
<path d="M14 11H12V12H14V11Z" fill="#4E4E4E"/>
</svg>
