<svg width="16" height="16" viewBox="0 0 16 16" fill="none" xmlns="http://www.w3.org/2000/svg">
<rect width="16" height="16" fill="#333333"/>
<path d="M4 5H3V8H4V9H5V7H4V5Z" fill="white"/>
<path d="M0 4V5H1V4H0Z" fill="white"/>
<path d="M1 3V4H3V3H1Z" fill="white"/>
<path d="M3 2V3H8V2H3Z" fill="white"/>
<path d="M8 3V4H9V3H8Z" fill="white"/>
<path d="M6 6H7V7H8V10H7V8H6V6Z" fill="white"/>
<path d="M9 4V5H10V4H9Z" fill="white"/>
<path d="M11 5H10V9H11V5Z" fill="white"/>
<path d="M10 9H9V11H10V9Z" fill="white"/>
<path d="M9 11H8V12H9V11Z" fill="white"/>
<path d="M8 12H6V13H8V12Z" fill="white"/>
<path d="M6 13H5V14H6V13Z" fill="white"/>
<path d="M5 16V14H4V16H5Z" fill="white"/>
<path d="M4 10H3V11H4V10Z" fill="white"/>
<path d="M10 2V3H11V2H10Z" fill="white"/>
<path d="M11 3V4H12V3H11Z" fill="white"/>
<path d="M12 6V5H13V6H12Z" fill="white"/>
<path d="M13 12V8H14V12H13Z" fill="white"/>
<path d="M13 14V13H14V14H13Z" fill="white"/>
</svg>
